<svg width="105" height="67" viewBox="0 0 105 67" fill="none" xmlns="http://www.w3.org/2000/svg">
<path d="M60.712 0H80.5707C88.1359 0 94.2826 6.01033 94.2826 13.4077V32.8257C94.2826 36.3816 92.838 39.7919 90.2665 42.3063C87.695 44.8207 84.2073 46.2333 80.5707 46.2333H60.712C53.1467 46.2333 47 40.223 47 32.8257V13.4077C47 9.85173 48.4446 6.44144 51.0161 3.92701C53.5876 1.41259 57.0753 0 60.712 0ZM60.2391 4.62333C57.9819 4.62333 55.8171 5.50011 54.221 7.06079C52.6249 8.62147 51.7283 10.7382 51.7283 12.9453V33.288C51.7283 37.8882 55.5345 41.61 60.2391 41.61H81.0435C83.3007 41.61 85.4655 40.7332 87.0616 39.1725C88.6577 37.6119 89.5543 35.4951 89.5543 33.288V12.9453C89.5543 8.34512 85.7481 4.62333 81.0435 4.62333H60.2391ZM83.053 8.09083C83.8367 8.09083 84.5884 8.39527 85.1426 8.93717C85.6968 9.47907 86.0082 10.2141 86.0082 10.9804C86.0082 11.7468 85.6968 12.4818 85.1426 13.0237C84.5884 13.5656 83.8367 13.87 83.053 13.87C82.2692 13.87 81.5176 13.5656 80.9634 13.0237C80.4092 12.4818 80.0978 11.7468 80.0978 10.9804C80.0978 10.2141 80.4092 9.47907 80.9634 8.93717C81.5176 8.39527 82.2692 8.09083 83.053 8.09083ZM70.6413 11.5583C73.7763 11.5583 76.783 12.7761 78.9998 14.9437C81.2166 17.1113 82.462 20.0512 82.462 23.1167C82.462 26.1821 81.2166 29.122 78.9998 31.2896C76.783 33.4573 73.7763 34.675 70.6413 34.675C67.5063 34.675 64.4996 33.4573 62.2828 31.2896C60.066 29.122 58.8207 26.1821 58.8207 23.1167C58.8207 20.0512 60.066 17.1113 62.2828 14.9437C64.4996 12.7761 67.5063 11.5583 70.6413 11.5583ZM70.6413 16.1817C68.7603 16.1817 66.9563 16.9123 65.6262 18.2129C64.2961 19.5134 63.5489 21.2774 63.5489 23.1167C63.5489 24.9559 64.2961 26.7199 65.6262 28.0205C66.9563 29.321 68.7603 30.0517 70.6413 30.0517C72.5223 30.0517 74.3263 29.321 75.6564 28.0205C76.9865 26.7199 77.7337 24.9559 77.7337 23.1167C77.7337 21.2774 76.9865 19.5134 75.6564 18.2129C74.3263 16.9123 72.5223 16.1817 70.6413 16.1817Z" fill="white"/>
</svg>
